<svg width="33" height="33" viewBox="0 0 33 33" fill="none" xmlns="http://www.w3.org/2000/svg">
<path d="M1 16.3956C1 8.11133 7.71573 1.3956 16 1.3956H17C25.2843 1.3956 32 8.11133 32 16.3956C32 24.6799 25.2843 31.3956 17 31.3956H16C7.71573 31.3956 1 24.6799 1 16.3956Z" fill="#45B7B2" stroke="#222533" stroke-width="2"/>
<path d="M15 5.8956L14.7727 5.9236C10.1325 6.49532 6.47194 10.1429 5.88375 14.7811V14.7811" stroke="#E6E6E6" stroke-width="2" stroke-linecap="round"/>
<path d="M17.261 10.2119C18.5809 10.2119 19.6476 10.5852 20.461 11.3319C21.2743 12.0786 21.6809 13.0786 21.6809 14.3319C21.6809 15.7319 21.2476 16.7719 20.3809 17.4519C19.5143 18.1186 18.341 18.4519 16.8609 18.4519L16.8009 20.3519H15.2209L15.1409 17.1919H15.7209C17.0409 17.1919 18.0743 16.9919 18.8209 16.5919C19.5676 16.1919 19.941 15.4386 19.941 14.3319C19.941 13.5319 19.701 12.8986 19.221 12.4319C18.7409 11.9652 18.0943 11.7319 17.2809 11.7319C16.4543 11.7319 15.8009 11.9586 15.3209 12.4119C14.8543 12.8519 14.6209 13.4586 14.6209 14.2319H12.9009C12.9009 13.4319 13.0809 12.7319 13.4409 12.1319C13.8009 11.5186 14.3076 11.0452 14.9609 10.7119C15.6276 10.3786 16.3943 10.2119 17.261 10.2119ZM16.0009 24.4519C15.6543 24.4519 15.3609 24.3319 15.1209 24.0919C14.8809 23.8519 14.7609 23.5586 14.7609 23.2119C14.7609 22.8652 14.8809 22.5719 15.1209 22.3319C15.3609 22.0919 15.6543 21.9719 16.0009 21.9719C16.3343 21.9719 16.6143 22.0919 16.8409 22.3319C17.0809 22.5719 17.2009 22.8652 17.2009 23.2119C17.2009 23.5586 17.0809 23.8519 16.8409 24.0919C16.6143 24.3319 16.3343 24.4519 16.0009 24.4519Z" fill="#222533"/>
<path d="M20.461 11.3319L20.7991 10.9636L20.7991 10.9636L20.461 11.3319ZM20.3809 17.4519L20.6858 17.8482L20.6896 17.8453L20.3809 17.4519ZM16.8609 18.4519V17.9519C16.591 17.9519 16.3697 18.1663 16.3612 18.4361L16.8609 18.4519ZM16.8009 20.3519V20.8519C17.0709 20.8519 17.2922 20.6376 17.3007 20.3677L16.8009 20.3519ZM15.2209 20.3519L14.7211 20.3646C14.728 20.6357 14.9497 20.8519 15.2209 20.8519V20.3519ZM15.1409 17.1919V16.6919C15.0061 16.6919 14.8771 16.7463 14.783 16.8429C14.6888 16.9394 14.6377 17.0698 14.6411 17.2046L15.1409 17.1919ZM18.8209 16.5919L18.5848 16.1512L18.5848 16.1512L18.8209 16.5919ZM15.3209 12.4119L15.664 12.7757L15.6643 12.7754L15.3209 12.4119ZM14.6209 14.2319V14.7319C14.8971 14.7319 15.1209 14.5081 15.1209 14.2319H14.6209ZM12.9009 14.2319H12.4009C12.4009 14.5081 12.6248 14.7319 12.9009 14.7319V14.2319ZM13.4409 12.1319L13.8697 12.3892L13.8722 12.385L13.4409 12.1319ZM14.9609 10.7119L14.7373 10.2647L14.7337 10.2665L14.9609 10.7119ZM15.1209 24.0919L14.7674 24.4455L14.7674 24.4455L15.1209 24.0919ZM15.1209 22.3319L14.7674 21.9784L14.7674 21.9784L15.1209 22.3319ZM16.8409 22.3319L16.4774 22.6752C16.4807 22.6787 16.484 22.6821 16.4874 22.6855L16.8409 22.3319ZM16.8409 24.0919L16.4874 23.7384C16.484 23.7417 16.4807 23.7451 16.4774 23.7486L16.8409 24.0919ZM17.261 10.7119C18.4816 10.7119 19.4192 11.0543 20.1228 11.7002L20.7991 10.9636C19.8761 10.1162 18.6803 9.71191 17.261 9.71191V10.7119ZM20.1228 11.7002C20.8186 12.3389 21.1809 13.1977 21.1809 14.3319H22.1809C22.1809 12.9594 21.73 11.8182 20.7991 10.9636L20.1228 11.7002ZM21.1809 14.3319C21.1809 15.6239 20.7864 16.4983 20.0723 17.0585L20.6896 17.8453C21.7088 17.0456 22.1809 15.84 22.1809 14.3319H21.1809ZM20.0761 17.0556C19.3232 17.6348 18.2693 17.9519 16.8609 17.9519V18.9519C18.4126 18.9519 19.7054 18.6024 20.6858 17.8482L20.0761 17.0556ZM16.3612 18.4361L16.3012 20.3361L17.3007 20.3677L17.3607 18.4677L16.3612 18.4361ZM16.8009 19.8519H15.2209V20.8519H16.8009V19.8519ZM15.7208 20.3393L15.6408 17.1793L14.6411 17.2046L14.7211 20.3646L15.7208 20.3393ZM15.1409 17.6919H15.7209V16.6919H15.1409V17.6919ZM15.7209 17.6919C17.0816 17.6919 18.2083 17.4874 19.0571 17.0326L18.5848 16.1512C17.9403 16.4964 17.0003 16.6919 15.7209 16.6919V17.6919ZM19.0571 17.0326C20.0169 16.5184 20.441 15.5572 20.441 14.3319H19.441C19.441 15.32 19.1183 15.8654 18.5848 16.1512L19.0571 17.0326ZM20.441 14.3319C20.441 13.4252 20.1649 12.6523 19.5695 12.0734L18.8724 12.7904C19.237 13.1449 19.441 13.6386 19.441 14.3319H20.441ZM19.5695 12.0734C18.9768 11.4972 18.1948 11.2319 17.2809 11.2319V12.2319C17.9938 12.2319 18.5051 12.4333 18.8724 12.7904L19.5695 12.0734ZM17.2809 11.2319C16.3603 11.2319 15.5723 11.4867 14.9776 12.0484L15.6643 12.7754C16.0296 12.4304 16.5483 12.2319 17.2809 12.2319V11.2319ZM14.9779 12.0481C14.3908 12.6017 14.1209 13.3514 14.1209 14.2319H15.1209C15.1209 13.5657 15.3177 13.1021 15.664 12.7757L14.9779 12.0481ZM14.6209 13.7319H12.9009V14.7319H14.6209V13.7319ZM13.4009 14.2319C13.4009 13.5093 13.5627 12.9008 13.8697 12.3892L13.0122 11.8747C12.5992 12.563 12.4009 13.3545 12.4009 14.2319H13.4009ZM13.8722 12.385C14.1823 11.8566 14.617 11.4487 15.1882 11.1573L14.7337 10.2665C13.9983 10.6418 13.4196 11.1806 13.0097 11.8788L13.8722 12.385ZM15.1846 11.1591C15.7713 10.8657 16.4593 10.7119 17.261 10.7119V9.71191C16.3293 9.71191 15.4839 9.89141 14.7373 10.2647L15.1846 11.1591ZM16.0009 23.9519C15.7837 23.9519 15.6185 23.8824 15.4745 23.7384L14.7674 24.4455C15.1034 24.7815 15.5249 24.9519 16.0009 24.9519V23.9519ZM15.4745 23.7384C15.3305 23.5943 15.2609 23.4291 15.2609 23.2119H14.2609C14.2609 23.688 14.4314 24.1095 14.7674 24.4455L15.4745 23.7384ZM15.2609 23.2119C15.2609 22.9947 15.3305 22.8295 15.4745 22.6855L14.7674 21.9784C14.4314 22.3143 14.2609 22.7358 14.2609 23.2119H15.2609ZM15.4745 22.6855C15.6185 22.5415 15.7837 22.4719 16.0009 22.4719V21.4719C15.5249 21.4719 15.1034 21.6424 14.7674 21.9784L15.4745 22.6855ZM16.0009 22.4719C16.1982 22.4719 16.3463 22.5363 16.4774 22.6752L17.2045 21.9886C16.8823 21.6475 16.4703 21.4719 16.0009 21.4719V22.4719ZM16.4874 22.6855C16.6314 22.8295 16.7009 22.9947 16.7009 23.2119H17.7009C17.7009 22.7358 17.5305 22.3143 17.1945 21.9784L16.4874 22.6855ZM16.7009 23.2119C16.7009 23.4291 16.6314 23.5943 16.4874 23.7384L17.1945 24.4455C17.5305 24.1095 17.7009 23.688 17.7009 23.2119H16.7009ZM16.4774 23.7486C16.3463 23.8875 16.1982 23.9519 16.0009 23.9519V24.9519C16.4703 24.9519 16.8823 24.7763 17.2045 24.4352L16.4774 23.7486Z" fill="#222533"/>
</svg>
