<svg width="87" height="86" fill="none" xmlns="http://www.w3.org/2000/svg">
<g filter="url(#filter0_d)">
<path d="M21 37C21 24.8497 30.8497 15 43 15H44C56.1503 15 66 24.8497 66 37C66 49.1503 56.1503 59 44 59H43C30.8497 59 21 49.1503 21 37Z" fill="#45B7B2"/>
<path d="M22 37C22 25.402 31.402 16 43 16H44C55.598 16 65 25.402 65 37C65 48.598 55.598 58 44 58H43C31.402 58 22 48.598 22 37Z" stroke="#222533" stroke-width="2"/>
</g>
<path d="M43.7801 21.4437V21.4437C35.0373 21.4437 27.8825 28.5311 27.8825 37.2739V37.2739" stroke="#E6E6E6" stroke-width="2" stroke-linecap="round"/>
<path d="M43.7054 29.2054V46.2054M35.2054 37.7054H52.2054" stroke="#222533" stroke-width="6" stroke-linecap="round"/>
</svg>
